<svg xmlns="http://www.w3.org/2000/svg" xmlns:xlink="http://www.w3.org/1999/xlink" contentStyleType="text/css" data-diagram-type="DESCRIPTION" height="1699px" preserveAspectRatio="none" style="width:958px;height:1699px;background:#FFFFFF;" version="1.1" viewBox="0 0 958 1699" width="958px" zoomAndPan="magnify"><defs/><g><!--cluster Plataforma Amazon.com--><g class="cluster" data-entity="Plataforma Amazon.com" data-source-line="16" data-uid="ent0010" id="cluster_Plataforma Amazon.com"><rect fill="none" height="1160" rx="2.5" ry="2.5" style="stroke:#181818;stroke-width:1;" width="645" x="307" y="34.39"/><text fill="#000000" font-family="sans-serif" font-size="14" font-weight="bold" lengthAdjust="spacing" textLength="192.5957" x="533.2021" y="49.3851">Plataforma Amazon.com</text></g><!--entity UC_Login--><g class="entity" data-entity="UC_Login" data-source-line="17" data-uid="ent0011" id="entity_UC_Login"><ellipse cx="438.7163" cy="765.6333" fill="#F9F9F9" rx="104.2163" ry="23.2433" style="stroke:#888888;stroke-width:0.5;"/><text fill="#000000" font-family="sans-serif" font-size="14" lengthAdjust="spacing" textLength="185.3086" x="346.062" y="770.2817">Registrarse / Iniciar sesi&#243;n</text></g><!--entity UC_Perfil--><g class="entity" data-entity="UC_Perfil" data-source-line="18" data-uid="ent0012" id="entity_UC_Perfil"><ellipse cx="438.2743" cy="452.4449" fill="#F9F9F9" rx="70.7743" ry="16.5549" style="stroke:#888888;stroke-width:0.5;"/><text fill="#000000" font-family="sans-serif" font-size="14" lengthAdjust="spacing" textLength="108.3223" x="384.1132" y="457.0933">Gestionar perfil</text></g><!--entity UC_Buscar--><g class="entity" data-entity="UC_Buscar" data-source-line="19" data-uid="ent0013" id="entity_UC_Buscar"><ellipse cx="438.2646" cy="526.4429" fill="#F9F9F9" rx="100.7646" ry="22.5529" style="stroke:#888888;stroke-width:0.5;"/><text fill="#000000" font-family="sans-serif" font-size="14" lengthAdjust="spacing" textLength="177.7412" x="349.394" y="531.0914">Buscar y filtrar productos</text></g><!--entity UC_PDP--><g class="entity" data-entity="UC_PDP" data-source-line="20" data-uid="ent0014" id="entity_UC_PDP"><ellipse cx="438.726" cy="91.3352" fill="#F9F9F9" rx="95.226" ry="21.4452" style="stroke:#888888;stroke-width:0.5;"/><text fill="#000000" font-family="sans-serif" font-size="14" lengthAdjust="spacing" textLength="165.4775" x="355.9872" y="95.9836">Ver detalle de producto</text></g><!--entity UC_QA--><g class="entity" data-entity="UC_QA" data-source-line="21" data-uid="ent0015" id="entity_UC_QA"><ellipse cx="438.6545" cy="169.6209" fill="#F9F9F9" rx="96.6545" ry="21.7309" style="stroke:#888888;stroke-width:0.5;"/><text fill="#000000" font-family="sans-serif" font-size="14" lengthAdjust="spacing" textLength="168.6563" x="354.3263" y="174.2693">Preguntas y Respuestas</text></g><!--entity UC_Carrito--><g class="entity" data-entity="UC_Carrito" data-source-line="22" data-uid="ent0016" id="entity_UC_Carrito"><ellipse cx="438.7376" cy="243.2375" fill="#F9F9F9" rx="74.7376" ry="17.3475" style="stroke:#888888;stroke-width:0.5;"/><text fill="#000000" font-family="sans-serif" font-size="14" lengthAdjust="spacing" textLength="118.0908" x="379.6922" y="247.886">Gestionar carrito</text></g><!--entity UC_Checkout--><g class="entity" data-entity="UC_Checkout" data-source-line="23" data-uid="ent0017" id="entity_UC_Checkout"><ellipse cx="438.6649" cy="310.4136" fill="#F9F9F9" rx="49.6649" ry="14.5236" style="stroke:#888888;stroke-width:0.5;"/><text fill="#000000" font-family="sans-serif" font-size="14" lengthAdjust="spacing" textLength="65.9941" x="405.6678" y="315.0621">Checkout</text></g><!--entity UC_Pago--><g class="entity" data-entity="UC_Pago" data-source-line="24" data-uid="ent0018" id="entity_UC_Pago"><ellipse cx="843.0251" cy="1162.295" fill="#F9F9F9" rx="67.5251" ry="15.905" style="stroke:#888888;stroke-width:0.5;"/><text fill="#000000" font-family="sans-serif" font-size="14" lengthAdjust="spacing" textLength="100.0713" x="792.9895" y="1166.9435">Procesar pago</text></g><!--entity UC_Pedidos--><g class="entity" data-entity="UC_Pedidos" data-source-line="25" data-uid="ent0019" id="entity_UC_Pedidos"><ellipse cx="438.6069" cy="602.5114" fill="#F9F9F9" rx="78.6069" ry="18.1214" style="stroke:#888888;stroke-width:0.5;"/><text fill="#000000" font-family="sans-serif" font-size="14" lengthAdjust="spacing" textLength="127.3809" x="374.9164" y="607.1598">Gestionar pedidos</text></g><!--entity UC_Tracking--><g class="entity" data-entity="UC_Tracking" data-source-line="26" data-uid="ent0020" id="entity_UC_Tracking"><ellipse cx="842.8252" cy="310.555" fill="#F9F9F9" rx="91.3252" ry="20.665" style="stroke:#888888;stroke-width:0.5;"/><text fill="#000000" font-family="sans-serif" font-size="14" lengthAdjust="spacing" textLength="156.7344" x="764.458" y="315.2035">Seguimiento del env&#237;o</text></g><!--entity UC_Resenas--><g class="entity" data-entity="UC_Resenas" data-source-line="27" data-uid="ent0021" id="entity_UC_Resenas"><ellipse cx="438.3783" cy="992.2657" fill="#F9F9F9" rx="97.3783" ry="21.8757" style="stroke:#888888;stroke-width:0.5;"/><text fill="#000000" font-family="sans-serif" font-size="14" lengthAdjust="spacing" textLength="170.2627" x="353.247" y="996.9141">Rese&#241;as y calificaciones</text></g><!--entity UC_Devoluciones--><g class="entity" data-entity="UC_Devoluciones" data-source-line="28" data-uid="ent0022" id="entity_UC_Devoluciones"><ellipse cx="438.3239" cy="380.1548" fill="#F9F9F9" rx="89.3239" ry="20.2648" style="stroke:#888888;stroke-width:0.5;"/><text fill="#000000" font-family="sans-serif" font-size="14" lengthAdjust="spacing" textLength="152.209" x="362.2194" y="384.8032">Devoluciones y A-to-z</text></g><!--entity UC_Mensajes--><g class="entity" data-entity="UC_Mensajes" data-source-line="29" data-uid="ent0023" id="entity_UC_Mensajes"><ellipse cx="438.2833" cy="681.3467" fill="#F9F9F9" rx="115.2833" ry="25.4567" style="stroke:#888888;stroke-width:0.5;"/><text fill="#000000" font-family="sans-serif" font-size="14" lengthAdjust="spacing" textLength="209.2617" x="333.6525" y="685.9951">Mensajer&#237;a Cliente&#8596;Vendedor</text></g><!--entity UC_Catalogo--><g class="entity" data-entity="UC_Catalogo" data-source-line="30" data-uid="ent0024" id="entity_UC_Catalogo"><ellipse cx="438.3222" cy="842.4544" fill="#F9F9F9" rx="80.8222" ry="18.5644" style="stroke:#888888;stroke-width:0.5;"/><text fill="#000000" font-family="sans-serif" font-size="14" lengthAdjust="spacing" textLength="132.6104" x="372.0171" y="847.1029">Gestionar cat&#225;logo</text></g><!--entity UC_Inventario--><g class="entity" data-entity="UC_Inventario" data-source-line="31" data-uid="ent0025" id="entity_UC_Inventario"><ellipse cx="438.3679" cy="915.3636" fill="#F9F9F9" rx="85.3679" ry="19.4736" style="stroke:#888888;stroke-width:0.5;"/><text fill="#000000" font-family="sans-serif" font-size="14" lengthAdjust="spacing" textLength="143.1719" x="366.782" y="920.012">Gestionar inventario</text></g><!--entity UC_Admin--><g class="entity" data-entity="UC_Admin" data-source-line="32" data-uid="ent0026" id="entity_UC_Admin"><ellipse cx="438.6814" cy="1153.2263" fill="#F9F9F9" rx="112.1814" ry="24.8363" style="stroke:#888888;stroke-width:0.5;"/><text fill="#000000" font-family="sans-serif" font-size="14" lengthAdjust="spacing" textLength="202.5898" x="337.3865" y="1157.8747">Moderaci&#243;n y administraci&#243;n</text></g><!--entity UC_Promos--><g class="entity" data-entity="UC_Promos" data-source-line="33" data-uid="ent0027" id="entity_UC_Promos"><ellipse cx="438.41" cy="1071.372" fill="#F9F9F9" rx="95.41" ry="21.482" style="stroke:#888888;stroke-width:0.5;"/><text fill="#000000" font-family="sans-serif" font-size="14" lengthAdjust="spacing" textLength="165.8877" x="355.4662" y="1076.0204">Promociones y cupones</text></g><!--entity UC_Notificar--><g class="entity" data-entity="UC_Notificar" data-source-line="34" data-uid="ent0028" id="entity_UC_Notificar"><ellipse cx="842.7985" cy="602.3497" fill="#F9F9F9" rx="75.2985" ry="17.4597" style="stroke:#888888;stroke-width:0.5;"/><text fill="#000000" font-family="sans-serif" font-size="14" lengthAdjust="spacing" textLength="119.4512" x="783.0729" y="606.9981">Notificar eventos</text></g><!--entity UC_2FA--><g class="entity" data-entity="UC_2FA" data-source-line="35" data-uid="ent0029" id="entity_UC_2FA"><ellipse cx="843.0461" cy="765.3992" fill="#F9F9F9" rx="93.0461" ry="21.0092" style="stroke:#888888;stroke-width:0.5;"/><text fill="#000000" font-family="sans-serif" font-size="14" lengthAdjust="spacing" textLength="160.6035" x="762.7443" y="770.0477">Autenticaci&#243;n 2FA/SSO</text></g><!--entity Cliente--><g class="entity" data-entity="Cliente" data-source-line="7" data-uid="ent0002" id="entity_Cliente"><ellipse cx="97" cy="394.39" fill="#F1F1F1" rx="16" ry="16" style="stroke:#181818;stroke-width:0.5;"/><path d="M97,414.39 C101,414.39 104,414.39 108,410.39 C116,410.39 124,418.39 124,426.39 L124,430.39 C124,434.39 120,438.39 116,438.39 L78,438.39 C74,438.39 70,434.39 70,430.39 L70,426.39 C70,418.39 78,410.39 86,410.39 C90,414.39 93,414.39 97,414.39" fill="#F1F1F1" style="stroke:#181818;stroke-width:0.5;"/><text fill="#000000" font-family="sans-serif" font-size="14" lengthAdjust="spacing" textLength="49.1436" x="72.4282" y="451.8851">Cliente</text></g><!--entity Vendedor--><g class="entity" data-entity="Vendedor" data-source-line="8" data-uid="ent0003" id="entity_Vendedor"><ellipse cx="97.2178" cy="703.39" fill="#F1F1F1" rx="16" ry="16" style="stroke:#181818;stroke-width:0.5;"/><path d="M97.2178,723.39 C101.2178,723.39 104.2178,723.39 108.2178,719.39 C116.2178,719.39 124.2178,727.39 124.2178,735.39 L124.2178,739.39 C124.2178,743.39 120.2178,747.39 116.2178,747.39 L78.2178,747.39 C74.2178,747.39 70.2178,743.39 70.2178,739.39 L70.2178,735.39 C70.2178,727.39 78.2178,719.39 86.2178,719.39 C90.2178,723.39 93.2178,723.39 97.2178,723.39" fill="#F1F1F1" style="stroke:#181818;stroke-width:0.5;"/><text fill="#000000" font-family="sans-serif" font-size="14" lengthAdjust="spacing" textLength="169.4355" x="12.5" y="760.8851">Vendedor (Marketplace)</text></g><!--entity Admin--><g class="entity" data-entity="Admin" data-source-line="9" data-uid="ent0004" id="entity_Admin"><ellipse cx="97.0308" cy="1049.39" fill="#F1F1F1" rx="16" ry="16" style="stroke:#181818;stroke-width:0.5;"/><path d="M97.0308,1069.39 C101.0308,1069.39 104.0308,1069.39 108.0308,1065.39 C116.0308,1065.39 124.0308,1073.39 124.0308,1081.39 L124.0308,1085.39 C124.0308,1089.39 120.0308,1093.39 116.0308,1093.39 L78.0308,1093.39 C74.0308,1093.39 70.0308,1089.39 70.0308,1085.39 L70.0308,1081.39 C70.0308,1073.39 78.0308,1065.39 86.0308,1065.39 C90.0308,1069.39 93.0308,1069.39 97.0308,1069.39" fill="#F1F1F1" style="stroke:#181818;stroke-width:0.5;"/><text fill="#000000" font-family="sans-serif" font-size="14" lengthAdjust="spacing" textLength="182.0615" x="6" y="1106.8851">Administrador de Amazon</text></g><!--entity PSP--><g class="entity" data-entity="PSP" data-source-line="10" data-uid="ent0005" id="entity_PSP"><ellipse cx="438.3032" cy="1504.1869" fill="#F1F1F1" rx="16" ry="16" style="stroke:#181818;stroke-width:0.5;"/><path d="M438.3032,1524.1869 C442.3032,1524.1869 445.3032,1524.1869 449.3032,1520.1869 C457.3032,1520.1869 465.3032,1528.1869 465.3032,1536.1869 L465.3032,1540.1869 C465.3032,1544.1869 461.3032,1548.1869 457.3032,1548.1869 L419.3032,1548.1869 C415.3032,1548.1869 411.3032,1544.1869 411.3032,1540.1869 L411.3032,1536.1869 C411.3032,1528.1869 419.3032,1520.1869 427.3032,1520.1869 C431.3032,1524.1869 434.3032,1524.1869 438.3032,1524.1869" fill="#F1F1F1" style="stroke:#181818;stroke-width:0.5;"/><text fill="#000000" font-family="sans-serif" font-size="14" lengthAdjust="spacing" textLength="120.6064" x="378" y="1561.682">Pasarela de Pago</text><text fill="#000000" font-family="sans-serif" font-size="14" font-style="italic" lengthAdjust="spacing" textLength="71.709" x="402.4487" y="1484.3851">&#171;Externo&#187;</text></g><!--entity Logistica--><g class="entity" data-entity="Logistica" data-source-line="11" data-uid="ent0006" id="entity_Logistica"><ellipse cx="438.2949" cy="1246.1869" fill="#F1F1F1" rx="16" ry="16" style="stroke:#181818;stroke-width:0.5;"/><path d="M438.2949,1266.1869 C442.2949,1266.1869 445.2949,1266.1869 449.2949,1262.1869 C457.2949,1262.1869 465.2949,1270.1869 465.2949,1278.1869 L465.2949,1282.1869 C465.2949,1286.1869 461.2949,1290.1869 457.2949,1290.1869 L419.2949,1290.1869 C415.2949,1290.1869 411.2949,1286.1869 411.2949,1282.1869 L411.2949,1278.1869 C411.2949,1270.1869 419.2949,1262.1869 427.2949,1262.1869 C431.2949,1266.1869 434.2949,1266.1869 438.2949,1266.1869" fill="#F1F1F1" style="stroke:#181818;stroke-width:0.5;"/><text fill="#000000" font-family="sans-serif" font-size="14" lengthAdjust="spacing" textLength="132.5898" x="372" y="1303.682">Operador Log&#237;stico</text><text fill="#000000" font-family="sans-serif" font-size="14" font-style="italic" lengthAdjust="spacing" textLength="71.709" x="402.4404" y="1226.3851">&#171;Externo&#187;</text></g><!--entity Notif--><g class="entity" data-entity="Notif" data-source-line="12" data-uid="ent0007" id="entity_Notif"><ellipse cx="438.6172" cy="1375.1869" fill="#F1F1F1" rx="16" ry="16" style="stroke:#181818;stroke-width:0.5;"/><path d="M438.6172,1395.1869 C442.6172,1395.1869 445.6172,1395.1869 449.6172,1391.1869 C457.6172,1391.1869 465.6172,1399.1869 465.6172,1407.1869 L465.6172,1411.1869 C465.6172,1415.1869 461.6172,1419.1869 457.6172,1419.1869 L419.6172,1419.1869 C415.6172,1419.1869 411.6172,1415.1869 411.6172,1411.1869 L411.6172,1407.1869 C411.6172,1399.1869 419.6172,1391.1869 427.6172,1391.1869 C431.6172,1395.1869 434.6172,1395.1869 438.6172,1395.1869" fill="#F1F1F1" style="stroke:#181818;stroke-width:0.5;"/><text fill="#000000" font-family="sans-serif" font-size="14" lengthAdjust="spacing" textLength="181.2344" x="348" y="1432.682">Sistema de Notificaciones</text><text fill="#000000" font-family="sans-serif" font-size="14" font-style="italic" lengthAdjust="spacing" textLength="71.709" x="402.7627" y="1355.3851">&#171;Externo&#187;</text></g><!--entity Antifraude--><g class="entity" data-entity="Antifraude" data-source-line="13" data-uid="ent0008" id="entity_Antifraude"><ellipse cx="438.7495" cy="1633.1869" fill="#F1F1F1" rx="16" ry="16" style="stroke:#181818;stroke-width:0.5;"/><path d="M438.7495,1653.1869 C442.7495,1653.1869 445.7495,1653.1869 449.7495,1649.1869 C457.7495,1649.1869 465.7495,1657.1869 465.7495,1665.1869 L465.7495,1669.1869 C465.7495,1673.1869 461.7495,1677.1869 457.7495,1677.1869 L419.7495,1677.1869 C415.7495,1677.1869 411.7495,1673.1869 411.7495,1669.1869 L411.7495,1665.1869 C411.7495,1657.1869 419.7495,1649.1869 427.7495,1649.1869 C431.7495,1653.1869 434.7495,1653.1869 438.7495,1653.1869" fill="#F1F1F1" style="stroke:#181818;stroke-width:0.5;"/><text fill="#000000" font-family="sans-serif" font-size="14" lengthAdjust="spacing" textLength="133.499" x="372" y="1690.682">Servicio Antifraude</text><text fill="#000000" font-family="sans-serif" font-size="14" font-style="italic" lengthAdjust="spacing" textLength="71.709" x="402.895" y="1613.3851">&#171;Externo&#187;</text></g><!--entity IdP--><g class="entity" data-entity="IdP" data-source-line="14" data-uid="ent0009" id="entity_IdP"><ellipse cx="96.8545" cy="833.1869" fill="#F1F1F1" rx="16" ry="16" style="stroke:#181818;stroke-width:0.5;"/><path d="M96.8545,853.1869 C100.8545,853.1869 103.8545,853.1869 107.8545,849.1869 C115.8545,849.1869 123.8545,857.1869 123.8545,865.1869 L123.8545,869.1869 C123.8545,873.1869 119.8545,877.1869 115.8545,877.1869 L77.8545,877.1869 C73.8545,877.1869 69.8545,873.1869 69.8545,869.1869 L69.8545,865.1869 C69.8545,857.1869 77.8545,849.1869 85.8545,849.1869 C89.8545,853.1869 92.8545,853.1869 96.8545,853.1869" fill="#F1F1F1" style="stroke:#181818;stroke-width:0.5;"/><text fill="#000000" font-family="sans-serif" font-size="14" lengthAdjust="spacing" textLength="63.8682" x="64.9204" y="890.682">IdP / SSO</text><text fill="#000000" font-family="sans-serif" font-size="14" font-style="italic" lengthAdjust="spacing" textLength="71.709" x="61" y="813.3851">&#171;Externo&#187;</text></g><!--link Cliente to UC_Login--><g class="link" data-entity-1="Cliente" data-entity-2="UC_Login" data-source-line="39" data-uid="lnk30" id="link_Cliente_UC_Login"><path d="M110.82,455.05 C135.42,522.53 196.13,660.69 299,724.39 C317.44,735.81 333.4729,742.5 354.2529,748.6" fill="none" id="Cliente-to-UC_Login" style="stroke:#181818;stroke-width:1;"/><polygon fill="#181818" points="360.01,750.29,352.5011,743.917,355.2124,748.8817,350.2477,751.5931,360.01,750.29" style="stroke:#181818;stroke-width:1;"/></g><!--link Cliente to UC_Perfil--><g class="link" data-entity-1="Cliente" data-entity-2="UC_Perfil" data-source-line="40" data-uid="lnk31" id="link_Cliente_UC_Perfil"><path d="M124.64,419.21 C177.87,424.86 292.7035,437.0371 367.6535,444.9871" fill="none" id="Cliente-to-UC_Perfil" style="stroke:#181818;stroke-width:1;"/><polygon fill="#181818" points="373.62,445.62,365.0921,440.693,368.6479,445.0926,364.2483,448.6484,373.62,445.62" style="stroke:#181818;stroke-width:1;"/></g><!--link Cliente to UC_Buscar--><g class="link" data-entity-1="Cliente" data-entity-2="UC_Buscar" data-source-line="41" data-uid="lnk32" id="link_Cliente_UC_Buscar"><path d="M124.51,426.13 C162.81,440.1 235.97,466.33 299,486.39 C323.45,494.17 344.7498,500.4852 368.4298,507.2352" fill="none" id="Cliente-to-UC_Buscar" style="stroke:#181818;stroke-width:1;"/><polygon fill="#181818" points="374.2,508.88,366.6413,502.5661,369.3915,507.5093,364.4482,510.2596,374.2,508.88" style="stroke:#181818;stroke-width:1;"/></g><!--link Cliente to UC_PDP--><g class="link" data-entity-1="Cliente" data-entity-2="UC_PDP" data-source-line="42" data-uid="lnk33" id="link_Cliente_UC_PDP"><path d="M112.81,377.7 C139.41,314.06 201.73,188.57 299,130.39 C318.51,118.72 335.8565,111.9804 357.5765,106.1304" fill="none" id="Cliente-to-UC_PDP" style="stroke:#181818;stroke-width:1;"/><polygon fill="#181818" points="363.37,104.57,353.6394,103.0483,358.5421,105.8703,355.72,110.773,363.37,104.57" style="stroke:#181818;stroke-width:1;"/></g><!--link Cliente to UC_QA--><g class="link" data-entity-1="Cliente" data-entity-2="UC_QA" data-source-line="43" data-uid="lnk34" id="link_Cliente_UC_QA"><path d="M123.47,377.78 C157.41,329.71 222.2,249 299,208.39 C319.54,197.53 337.635,190.965 359.735,185.035" fill="none" id="Cliente-to-UC_QA" style="stroke:#181818;stroke-width:1;"/><polygon fill="#181818" points="365.53,183.48,355.8009,181.9491,360.7008,184.7758,357.8741,189.6758,365.53,183.48" style="stroke:#181818;stroke-width:1;"/></g><!--link Cliente to UC_Carrito--><g class="link" data-entity-1="Cliente" data-entity-2="UC_Carrito" data-source-line="44" data-uid="lnk35" id="link_Cliente_UC_Carrito"><path d="M124.63,393.15 C161.36,362.32 230.78,308.32 299,278.39 C324.1,267.38 347.4717,260.6462 372.6017,255.0862" fill="none" id="Cliente-to-UC_Carrito" style="stroke:#181818;stroke-width:1;"/><polygon fill="#181818" points="378.46,253.79,368.8084,251.8287,373.5781,254.8701,370.5366,259.6398,378.46,253.79" style="stroke:#181818;stroke-width:1;"/></g><!--link Cliente to UC_Checkout--><g class="link" data-entity-1="Cliente" data-entity-2="UC_Checkout" data-source-line="45" data-uid="lnk36" id="link_Cliente_UC_Checkout"><path d="M124.62,405.37 C162.77,389.86 235.39,361.36 299,342.39 C331.52,332.69 363.1866,325.4058 390.9766,319.6058" fill="none" id="Cliente-to-UC_Checkout" style="stroke:#181818;stroke-width:1;"/><polygon fill="#181818" points="396.85,318.38,387.2226,316.3031,391.9555,319.4015,388.8571,324.1344,396.85,318.38" style="stroke:#181818;stroke-width:1;"/></g><!--link Cliente to UC_Pedidos--><g class="link" data-entity-1="Cliente" data-entity-2="UC_Pedidos" data-source-line="46" data-uid="lnk37" id="link_Cliente_UC_Pedidos"><path d="M124.69,441.75 C161.21,475.09 230.12,533.31 299,566.39 C322.85,577.84 344.9814,584.6606 369.5214,590.2806" fill="none" id="Cliente-to-UC_Pedidos" style="stroke:#181818;stroke-width:1;"/><polygon fill="#181818" points="375.37,591.62,367.4901,585.7118,370.4962,590.5038,365.7042,593.5099,375.37,591.62" style="stroke:#181818;stroke-width:1;"/></g><!--link Cliente to UC_Tracking--><g class="link" data-entity-1="Cliente" data-entity-2="UC_Tracking" data-source-line="47" data-uid="lnk38" id="link_Cliente_UC_Tracking"><path d="M104.2,377.81 C119.67,296.65 168.59,110.9 299,52.39 C402.4,6 448.14,11.91 554,52.39 C682.85,101.66 786.911,233.2131 824.331,285.1131" fill="none" id="Cliente-to-UC_Tracking" style="stroke:#181818;stroke-width:1;"/><polygon fill="#181818" points="827.84,289.98,825.821,280.3403,824.9158,285.9243,819.3318,285.019,827.84,289.98" style="stroke:#181818;stroke-width:1;"/></g><!--link Cliente to UC_Resenas--><g class="link" data-entity-1="Cliente" data-entity-2="UC_Resenas" data-source-line="48" data-uid="lnk39" id="link_Cliente_UC_Resenas"><path d="M109.44,455.1 C128,515.31 167.72,634.18 218,727.39 C244.47,776.45 272.25,776.89 291,829.39 C300.21,855.18 281.83,931.04 299,952.39 C311.47,967.9 323.8326,975.8104 342.8426,981.8604" fill="none" id="Cliente-to-UC_Resenas" style="stroke:#181818;stroke-width:1;"/><polygon fill="#181818" points="348.56,983.68,341.1969,977.139,343.7955,982.1637,338.7708,984.7622,348.56,983.68" style="stroke:#181818;stroke-width:1;"/></g><!--link Cliente to UC_Devoluciones--><g class="link" data-entity-1="Cliente" data-entity-2="UC_Devoluciones" data-source-line="49" data-uid="lnk40" id="link_Cliente_UC_Devoluciones"><path d="M124.64,413.57 C174.04,408.33 275.6635,397.5529 350.8035,389.5829" fill="none" id="Cliente-to-UC_Devoluciones" style="stroke:#181818;stroke-width:1;"/><polygon fill="#181818" points="356.77,388.95,347.3983,385.9216,351.7979,389.4774,348.2421,393.877,356.77,388.95" style="stroke:#181818;stroke-width:1;"/></g><!--link Cliente to UC_Mensajes--><g class="link" data-entity-1="Cliente" data-entity-2="UC_Mensajes" data-source-line="50" data-uid="lnk41" id="link_Cliente_UC_Mensajes"><path d="M121.52,455.1 C154.48,505.75 219.41,593.23 299,637.39 C317.75,647.8 333.6027,654.32 354.0527,660.83" fill="none" id="Cliente-to-UC_Mensajes" style="stroke:#181818;stroke-width:1;"/><polygon fill="#181818" points="359.77,662.65,352.4074,656.1084,355.0056,661.1333,349.9807,663.7315,359.77,662.65" style="stroke:#181818;stroke-width:1;"/></g><!--link Vendedor to UC_Catalogo--><g class="link" data-entity-1="Vendedor" data-entity-2="UC_Catalogo" data-source-line="53" data-uid="lnk42" id="link_Vendedor_UC_Catalogo"><path d="M181.98,737.37 C218.95,746.26 260.75,761.68 291,788.39 C297.26,793.92 292.59,800.04 299,805.39 C317.24,820.63 335.307,828.2866 358.107,833.6066" fill="none" id="Vendedor-to-UC_Catalogo" style="stroke:#181818;stroke-width:1;"/><polygon fill="#181818" points="363.95,834.97,356.0943,829.0296,359.0808,833.8339,354.2765,836.8203,363.95,834.97" style="stroke:#181818;stroke-width:1;"/></g><!--link Vendedor to UC_Inventario--><g class="link" data-entity-1="Vendedor" data-entity-2="UC_Inventario" data-source-line="54" data-uid="lnk43" id="link_Vendedor_UC_Inventario"><path d="M165.52,764.04 C173.45,769.75 181.15,775.91 188,782.39 C204.67,798.15 201.52,808.43 218,824.39 C249.08,854.49 259.57,860.57 299,878.39 C322.25,888.9 343.2532,895.489 367.0732,901.339" fill="none" id="Vendedor-to-UC_Inventario" style="stroke:#181818;stroke-width:1;"/><polygon fill="#181818" points="372.9,902.77,365.1137,896.7389,368.0443,901.5775,363.2057,904.508,372.9,902.77" style="stroke:#181818;stroke-width:1;"/></g><!--link Vendedor to UC_Pedidos--><g class="link" data-entity-1="Vendedor" data-entity-2="UC_Pedidos" data-source-line="55" data-uid="lnk44" id="link_Vendedor_UC_Pedidos"><path d="M179.51,686.71 C215.61,670.47 258.91,652.18 299,638.39 C325.78,629.17 350.3502,622.4491 375.8202,616.2491" fill="none" id="Vendedor-to-UC_Pedidos" style="stroke:#181818;stroke-width:1;"/><polygon fill="#181818" points="381.65,614.83,371.9593,613.0721,376.7919,616.0126,373.8514,620.8452,381.65,614.83" style="stroke:#181818;stroke-width:1;"/></g><!--link Vendedor to UC_Mensajes--><g class="link" data-entity-1="Vendedor" data-entity-2="UC_Mensajes" data-source-line="56" data-uid="lnk45" id="link_Vendedor_UC_Mensajes"><path d="M181.92,714.51 C229.34,708.37 282.9398,701.4213 332.6198,694.9813" fill="none" id="Vendedor-to-UC_Mensajes" style="stroke:#181818;stroke-width:1;"/><polygon fill="#181818" points="338.57,694.21,329.1305,691.4002,333.6115,694.8528,330.1589,699.3338,338.57,694.21" style="stroke:#181818;stroke-width:1;"/></g><!--link Admin to UC_Admin--><g class="link" data-entity-1="Admin" data-entity-2="UC_Admin" data-source-line="59" data-uid="lnk46" id="link_Admin_UC_Admin"><path d="M188.09,1093.15 C242.31,1106.24 304.7176,1121.3216 356.1076,1133.7316" fill="none" id="Admin-to-UC_Admin" style="stroke:#181818;stroke-width:1;"/><polygon fill="#181818" points="361.94,1135.14,354.1304,1129.1391,357.0797,1133.9663,352.2525,1136.9156,361.94,1135.14" style="stroke:#181818;stroke-width:1;"/></g><!--link Admin to UC_Promos--><g class="link" data-entity-1="Admin" data-entity-2="UC_Promos" data-source-line="60" data-uid="lnk47" id="link_Admin_UC_Promos"><path d="M188.09,1071.39 C235.82,1071.39 288.43,1071.39 336.83,1071.39" fill="none" id="Admin-to-UC_Promos" style="stroke:#181818;stroke-width:1;"/><polygon fill="#181818" points="342.83,1071.39,333.83,1067.39,337.83,1071.39,333.83,1075.39,342.83,1071.39" style="stroke:#181818;stroke-width:1;"/></g><!--link Admin to UC_Resenas--><g class="link" data-entity-1="Admin" data-entity-2="UC_Resenas" data-source-line="61" data-uid="lnk48" id="link_Admin_UC_Resenas"><path d="M188.09,1050.43 C245.15,1037.15 311.9161,1021.6098 364.0461,1009.4798" fill="none" id="Admin-to-UC_Resenas" style="stroke:#181818;stroke-width:1;"/><polygon fill="#181818" points="369.89,1008.12,360.2176,1006.2638,365.0201,1009.2532,362.0307,1014.0556,369.89,1008.12" style="stroke:#181818;stroke-width:1;"/></g><!--link UC_Checkout to UC_Pago--><g class="link" data-entity-1="UC_Checkout" data-entity-2="UC_Pago" data-source-line="64" data-uid="lnk49" id="link_UC_Checkout_UC_Pago"><path d="M484.76,315.62 C549.95,325.86 668.12,355.19 720,436.39 C764.06,505.34 736.46,722.69 750,803.39 C772.57,937.91 819.0388,1090.1099 834.9688,1140.4199" fill="none" id="UC_Checkout-to-UC_Pago" style="stroke:#181818;stroke-width:1;"/><polygon fill="#181818" points="836.78,1146.14,837.8766,1136.3524,835.2707,1141.3732,830.2498,1138.7673,836.78,1146.14" style="stroke:#181818;stroke-width:1;"/><text fill="#000000" font-family="sans-serif" font-size="13" lengthAdjust="spacing" textLength="63.0068" x="620.5" y="338.4569">&#171;include&#187;</text></g><!--link UC_Checkout to UC_Tracking--><g class="link" data-entity-1="UC_Checkout" data-entity-2="UC_Tracking" data-source-line="65" data-uid="lnk50" id="link_UC_Checkout_UC_Tracking"><path d="M488.05,310.39 C553.08,310.39 663.7,310.39 745.25,310.39" fill="none" id="UC_Checkout-to-UC_Tracking" style="stroke:#181818;stroke-width:1;"/><polygon fill="#181818" points="751.25,310.39,742.25,306.39,746.25,310.39,742.25,314.39,751.25,310.39" style="stroke:#181818;stroke-width:1;"/><text fill="#000000" font-family="sans-serif" font-size="13" lengthAdjust="spacing" textLength="63.0068" x="620.5" y="306.4569">&#171;include&#187;</text></g><!--link UC_Pedidos to UC_Notificar--><g class="link" data-entity-1="UC_Pedidos" data-entity-2="UC_Notificar" data-source-line="66" data-uid="lnk51" id="link_UC_Pedidos_UC_Notificar"><path d="M517.11,602.39 C589.29,602.39 690.13,602.39 761.35,602.39" fill="none" id="UC_Pedidos-to-UC_Notificar" style="stroke:#181818;stroke-width:1;"/><polygon fill="#181818" points="767.35,602.39,758.35,598.39,762.35,602.39,758.35,606.39,767.35,602.39" style="stroke:#181818;stroke-width:1;"/><text fill="#000000" font-family="sans-serif" font-size="13" lengthAdjust="spacing" textLength="63.0068" x="620.5" y="598.4569">&#171;include&#187;</text></g><!--link UC_Devoluciones to UC_Notificar--><g class="link" data-entity-1="UC_Devoluciones" data-entity-2="UC_Notificar" data-source-line="67" data-uid="lnk52" id="link_UC_Devoluciones_UC_Notificar"><path d="M503.9,394.41 C521.16,400.07 539.15,407.84 554,418.39 C571.83,431.06 567.47,443.08 584,457.39 C653.53,517.59 746.4589,562.1177 799.3789,584.8977" fill="none" id="UC_Devoluciones-to-UC_Notificar" style="stroke:#181818;stroke-width:1;"/><polygon fill="#181818" points="804.89,587.27,798.2049,580.0375,800.2974,585.2931,795.0418,587.3856,804.89,587.27" style="stroke:#181818;stroke-width:1;"/><text fill="#000000" font-family="sans-serif" font-size="13" lengthAdjust="spacing" textLength="63.0068" x="620.5" y="453.4569">&#171;include&#187;</text></g><!--link UC_Login to UC_2FA--><g class="link" data-entity-1="UC_Login" data-entity-2="UC_2FA" data-source-line="68" data-uid="lnk53" id="link_UC_Login_UC_2FA"><path d="M542.63,765.39 C606.57,765.39 682,765.39 743.79,765.39" fill="none" id="UC_Login-to-UC_2FA" style="stroke:#181818;stroke-width:1;"/><polygon fill="#181818" points="749.79,765.39,740.79,761.39,744.79,765.39,740.79,769.39,749.79,765.39" style="stroke:#181818;stroke-width:1;"/><text fill="#000000" font-family="sans-serif" font-size="13" lengthAdjust="spacing" textLength="61.1851" x="621.5" y="761.4569">&#171;extend&#187;</text></g><!--link PSP to UC_Pago--><g class="link" data-entity-1="PSP" data-entity-2="UC_Pago" data-source-line="71" data-uid="lnk54" id="link_PSP_UC_Pago"><path d="M499.15,1509.93 C561.07,1498.34 657.46,1472.11 720,1415.39 C795.13,1347.25 827.3943,1228.674 837.3443,1184.404" fill="none" id="PSP-to-UC_Pago" style="stroke:#181818;stroke-width:1;"/><polygon fill="#181818" points="838.66,1178.55,832.7838,1186.4538,837.5636,1183.4283,840.5891,1188.2081,838.66,1178.55" style="stroke:#181818;stroke-width:1;"/></g><!--link Antifraude to UC_Pago--><g class="link" data-entity-1="Antifraude" data-entity-2="UC_Pago" data-source-line="72" data-uid="lnk55" id="link_Antifraude_UC_Pago"><path d="M505.15,1631.54 C568.43,1613.04 662.77,1576.49 720,1512.39 C812.14,1409.18 834.9909,1238.433 840.1309,1184.483" fill="none" id="Antifraude-to-UC_Pago" style="stroke:#181818;stroke-width:1;"/><polygon fill="#181818" points="840.7,1178.51,835.8644,1187.0901,840.2258,1183.4875,843.8284,1187.8488,840.7,1178.51" style="stroke:#181818;stroke-width:1;"/><text fill="#000000" font-family="sans-serif" font-size="13" lengthAdjust="spacing" textLength="134.875" x="585" y="1508.4569">evaluaci&#243;n de riesgo</text></g><!--link Logistica to UC_Tracking--><g class="link" data-entity-1="Logistica" data-entity-2="UC_Tracking" data-source-line="73" data-uid="lnk56" id="link_Logistica_UC_Tracking"><path d="M505.08,1232.52 C522.76,1222.54 540.66,1209.85 554,1194.39 C685.37,1042.09 668.27,967.76 720,773.39 C743.79,683.98 727.63,657.17 750,567.39 C772.51,477.03 812.3131,379.4877 830.6931,336.4577" fill="none" id="Logistica-to-UC_Tracking" style="stroke:#181818;stroke-width:1;"/><polygon fill="#181818" points="833.05,330.94,825.8362,337.6453,831.086,335.5381,833.1932,340.7878,833.05,330.94" style="stroke:#181818;stroke-width:1;"/></g><!--link Notif to UC_Notificar--><g class="link" data-entity-1="Notif" data-entity-2="UC_Notificar" data-source-line="74" data-uid="lnk57" id="link_Notif_UC_Notificar"><path d="M529.11,1381.84 C593.28,1371.29 675.85,1346.17 720,1286.39 C757.02,1236.27 728.87,785.01 750,726.39 C765.63,683.01 797.5704,646.2156 819.6104,623.9356" fill="none" id="Notif-to-UC_Notificar" style="stroke:#181818;stroke-width:1;"/><polygon fill="#181818" points="823.83,619.67,814.6569,623.2553,820.3137,623.2246,820.3443,628.8814,823.83,619.67" style="stroke:#181818;stroke-width:1;"/></g><!--link IdP to UC_Login--><g class="link" data-entity-1="IdP" data-entity-2="UC_Login" data-source-line="75" data-uid="lnk58" id="link_IdP_UC_Login"><path d="M134.01,838.69 C189.39,825.32 290.6477,800.8586 361.6577,783.7086" fill="none" id="IdP-to-UC_Login" style="stroke:#181818;stroke-width:1;"/><polygon fill="#181818" points="367.49,782.3,357.8025,780.5247,362.6297,783.4738,359.6806,788.3011,367.49,782.3" style="stroke:#181818;stroke-width:1;"/><text fill="#000000" font-family="sans-serif" font-size="13" lengthAdjust="spacing" textLength="71.8174" x="219" y="798.4569">SSO/OAuth</text></g><!--SRC=[XPN1RXCn48Rl-nHMERGSGYHE1LMLqfIYIfGk3VIAHhkJZOdNZcnlIekuyWIy00_G0-8HyYOy2MDxxMpSIAY7PcQ-7S_C_kCLEBVCAgPvix2ivXehovKip9BB5MXe6LHMwPcz5yZW3ergSH3i35PWy0ogPQDL9-kf4agpPnUltDyUKEaQTGyT7nyFYDa2QdN7PSFc80mMXJ-OJGL7QR6t3cvHrbZJhwChq4kqAm4LFZzWO5WCHNHIjrnoOpKulaOsQU51IS_wM0HBCA1HW6DAQ9Gdobd9JaxUVBMefJezZUpr2aE-TwhPF1hBgu2JoPq5-nwQKGXRd_-zidnEM4L3HkCVzQwzZw5USmBPH1AXeQin59_CVKzTrYKRizdishFE6aA5Uy4W6tgR1wK02tEbgR8mcXULQW_OjuAnenji_EYqGSfsAQaEqCoWuPi_yhdB_6dwsJKj7VqMZLCD4JIUEHSHABtbYBFEL1I-PsIxj6obLTrHnIQoWN3iBRhNPK5GaTHZ95FIyz9HfSQcavPyz-m6pQgZ6Y1b-p3PhOjIQxxDCGscOwOBh9QgiodKs-4CLQ5nrP8iqldqEs-wvlMsapAOZfbHZRnr2bRKYc0ervl7bEcZfhqXnOU16zpyzjrK80OQYR039FYivxXMeWjXuYSZgqOFaHi67No5qi0Nr9j7YClqzyVFk2pngPuo-TJivfTGpM1kz5fKtZ-NQqeBcYVkCdby2OgMdjeXwL2vaFQo6eefh6GOUgjISrMt6ax11tsLSPCqGtVMTlmfuAX9PodeX-bEVtan6TDgH9JCudjH7APRfl_FHgFJhS0pPo_gpDlBDsT9gvcBb9bveXXpTnJYa_E3l39t4bFcZxh9t3iooM9933IPTAkccpTLtKiX3mpUVHwAfUV-uO4xrtRXhOW5YUouUZti-6B7bEo6hlLUIaXteAJZmOovh4JdVXM3CQUCjDxiDLsQdggHBiqzL9psKxBlCO9RcJuXTzRu_xWNO-H8kPu8NRcB_P3rjxmftBThq4qn-63iDebh45s_6XJK70tXsszPBgtmgSfBBTn7PhWnb9cMR7nDoxVu1m00]--></g></svg>